REM DIRINDEX 1\2\5,1\2\6,1\2\7,1\2\8,1\3\9,1\3\10,1\3\11,1\4\12,1\4\13,1\4\14,1\4\15,1\4\16
REM DIRNAME folder01,folder02,folder03,folder04,folder05,folder06,folder07,folder08,folder09,folder10,folder11,folder12,folder13,folder14,folder15,folder16
TITLE ""
FILE "1200_sec02_0338_0345.mp3" MP3
  TRACK 01 AUDIO
    TITLE "0:"
    INDEX 01 00:00:00
  TRACK 02 AUDIO
    TITLE "12:cjc034_04991"
    INDEX 01 00:00:17
  TRACK 03 AUDIO
    TITLE "0:"
    INDEX 01 00:01:32
  TRACK 04 AUDIO
    TITLE "13:cjc034_04992"
    INDEX 01 00:01:64
  TRACK 05 AUDIO
    TITLE "0:"
    INDEX 01 00:04:23
  TRACK 06 AUDIO
    TITLE "14:cjc034_04993"
    INDEX 01 00:04:56
  TRACK 07 AUDIO
    TITLE "0:"
    INDEX 01 00:05:67
  TRACK 08 AUDIO
    TITLE "15:cjc034_04994"
    INDEX 01 00:06:26
  TRACK 09 AUDIO
    TITLE "0:"
    INDEX 01 00:09:55
  TRACK 10 AUDIO
    TITLE "12:cjc034_04995"
    INDEX 01 00:11:13
  TRACK 11 AUDIO
    TITLE "0:"
    INDEX 01 00:12:28
  TRACK 12 AUDIO
    TITLE "13:cjc034_04996"
    INDEX 01 00:12:61
  TRACK 13 AUDIO
    TITLE "0:"
    INDEX 01 00:16:53
  TRACK 14 AUDIO
    TITLE "14:cjc034_04997"
    INDEX 01 00:17:08
  TRACK 15 AUDIO
    TITLE "0:"
    INDEX 01 00:18:25
  TRACK 16 AUDIO
    TITLE "15:cjc034_04998"
    INDEX 01 00:18:58
  TRACK 17 AUDIO
    TITLE "0:"
    INDEX 01 00:22:70
  TRACK 18 AUDIO
    TITLE "12:cjc034_04999"
    INDEX 01 00:24:29
  TRACK 19 AUDIO
    TITLE "0:"
    INDEX 01 00:25:35
  TRACK 20 AUDIO
    TITLE "13:cjc034_05000"
    INDEX 01 00:25:66
  TRACK 21 AUDIO
    TITLE "0:"
    INDEX 01 00:28:29
  TRACK 22 AUDIO
    TITLE "14:cjc034_05001"
    INDEX 01 00:28:62
  TRACK 23 AUDIO
    TITLE "0:"
    INDEX 01 00:29:64
  TRACK 24 AUDIO
    TITLE "15:cjc034_05002"
    INDEX 01 00:30:24
  TRACK 25 AUDIO
    TITLE "0:"
    INDEX 01 00:33:28
  TRACK 26 AUDIO
    TITLE "12:cjc034_05003"
    INDEX 01 00:34:65
  TRACK 27 AUDIO
    TITLE "0:"
    INDEX 01 00:35:68
  TRACK 28 AUDIO
    TITLE "13:cjc034_05004"
    INDEX 01 00:36:25
  TRACK 29 AUDIO
    TITLE "0:"
    INDEX 01 00:38:55
  TRACK 30 AUDIO
    TITLE "14:cjc034_05005"
    INDEX 01 00:39:11
  TRACK 31 AUDIO
    TITLE "0:"
    INDEX 01 00:40:17
  TRACK 32 AUDIO
    TITLE "15:cjc034_05006"
    INDEX 01 00:40:48
  TRACK 33 AUDIO
    TITLE "0:"
    INDEX 01 00:43:13
  TRACK 34 AUDIO
    TITLE "12:cjc034_05007"
    INDEX 01 00:44:46
  TRACK 35 AUDIO
    TITLE "0:"
    INDEX 01 00:45:55
  TRACK 36 AUDIO
    TITLE "13:cjc034_05008"
    INDEX 01 00:46:15
  TRACK 37 AUDIO
    TITLE "0:"
    INDEX 01 00:48:67
  TRACK 38 AUDIO
    TITLE "14:cjc034_05009"
    INDEX 01 00:49:23
  TRACK 39 AUDIO
    TITLE "0:"
    INDEX 01 00:50:35
  TRACK 40 AUDIO
    TITLE "15:cjc034_05010"
    INDEX 01 00:50:68
  TRACK 41 AUDIO
    TITLE "0:"
    INDEX 01 00:54:11
  TRACK 42 AUDIO
    TITLE "12:cjc034_05011"
    INDEX 01 00:55:44
  TRACK 43 AUDIO
    TITLE "0:"
    INDEX 01 00:56:53
  TRACK 44 AUDIO
    TITLE "13:cjc034_05012"
    INDEX 01 00:57:09
  TRACK 45 AUDIO
    TITLE "0:"
    INDEX 01 00:59:67
  TRACK 46 AUDIO
    TITLE "14:cjc034_05013"
    INDEX 01 01:00:23
  TRACK 47 AUDIO
    TITLE "0:"
    INDEX 01 01:01:33
  TRACK 48 AUDIO
    TITLE "15:cjc034_05014"
    INDEX 01 01:01:64
  TRACK 49 AUDIO
    TITLE "0:"
    INDEX 01 01:06:43
  TRACK 50 AUDIO
    TITLE "12:cjc034_05015"
    INDEX 01 01:08:03
  TRACK 51 AUDIO
    TITLE "0:"
    INDEX 01 01:09:10
  TRACK 52 AUDIO
    TITLE "13:cjc034_05016"
    INDEX 01 01:09:46
  TRACK 53 AUDIO
    TITLE "0:"
    INDEX 01 01:10:61
  TRACK 54 AUDIO
    TITLE "14:cjc034_05017"
    INDEX 01 01:11:15
  TRACK 55 AUDIO
    TITLE "0:"
    INDEX 01 01:12:26
  TRACK 56 AUDIO
    TITLE "15:cjc034_05018"
    INDEX 01 01:12:60
  TRACK 57 AUDIO
    TITLE "0:"
    INDEX 01 01:15:39
  TRACK 58 AUDIO
    TITLE "12:cjc034_05019"
    INDEX 01 01:17:00
  TRACK 59 AUDIO
    TITLE "0:"
    INDEX 01 01:18:06
  TRACK 60 AUDIO
    TITLE "13:cjc034_05020"
    INDEX 01 01:18:39
  TRACK 61 AUDIO
    TITLE "0:"
    INDEX 01 01:21:10
  TRACK 62 AUDIO
    TITLE "14:cjc034_05021"
    INDEX 01 01:21:47
  TRACK 63 AUDIO
    TITLE "0:"
    INDEX 01 01:22:52
  TRACK 64 AUDIO
    TITLE "15:cjc034_05022"
    INDEX 01 01:23:11
  TRACK 65 AUDIO
    TITLE "0:"
    INDEX 01 01:27:04
